<svg width="166" height="157" viewBox="0 0 166 157" fill="none" xmlns="http://www.w3.org/2000/svg">
<path fill-rule="evenodd" clip-rule="evenodd" d="M132.998 0H34.3127V11.5702H0V65.8412C0 86.8157 23.1638 104.076 45.8946 105.871C53.3567 113.951 66.4822 119.821 78.164 122.323V136.508C66.993 139.976 47.0383 148.123 45.8946 157H122.56C121.405 148.123 99.4179 139.965 88.2246 136.508V122.323C99.9509 119.821 113.665 113.951 121.138 105.871C143.858 104.076 166 86.8157 166 65.8412V11.5702H132.998V0ZM10.5381 21.8498H33.5131V68.6019C33.5131 77.8267 35.8673 86.6025 40.0092 94.503C22.8196 88.9704 10.5381 74.7181 10.5381 58.0417V21.8498ZM126.013 95.9956C130.177 87.736 132.565 78.601 132.565 68.9386V22.1528H155.595V57.9071C155.595 75.3353 143.258 90.2161 126.013 95.9956Z" fill="#FFBCA2"/>
</svg>
